# xmcd
#
# Track frame offsets: 
#        150
#        12870
#        28310
#        46142
#        65355
#        78452
#        98670
#        114800
#        129665
#        148777
#        167390
#        179842
#
# Disc length: 2606 seconds
#
# Revision: 2
# Processed by: cddbd v1.5PL3 Copyright (c) Steve Scherf et al.
# Submitted via: ExactAudioCopy v0.95a3
#
DISCID=9a0a2c0c
DTITLE=Rodney Crowell - Keys To The Highway
DYEAR=1989
DGENRE=Country
TTITLE0=My Past Is Present
TTITLE1=If Looks Could Kill
TTITLE2=Soul Searchin'
TTITLE3=Many A Long And Lonesome Highway
TTITLE4=We Gotta Go On Meeting Like This
TTITLE5=The Faith Is Mine
TTITLE6=Tell Me The Truth
TTITLE7=Don't Let Your Feet Slow You Down
TTITLE8=Now That We're Alone
TTITLE9=Things I Wish I'd Said
TTITLE10=I Guess We've Been Together For Too Long
TTITLE11=You Been On My Mind
EXTD=
EXTT0=
EXTT1=
EXTT2=
EXTT3=
EXTT4=
EXTT5=
EXTT6=
EXTT7=
EXTT8=
EXTT9=
EXTT10=
EXTT11=
PLAYORDER=
